<svg xmlns="http://www.w3.org/2000/svg" xmlns:xlink="http://www.w3.org/1999/xlink" width="1366" zoomAndPan="magnify" viewBox="0 0 1024.5 576" height="768" preserveAspectRatio="xMidYMid meet" version="1.0"><defs><clipPath id="90feee7556"><path d="M 634 73.566406 L 726.359375 73.566406 L 726.359375 168 L 634 168 Z M 634 73.566406 " clip-rule="nonzero"/></clipPath><clipPath id="f94d943e51"><path d="M 297.566406 404 L 391 404 L 391 502.359375 L 297.566406 502.359375 Z M 297.566406 404 " clip-rule="nonzero"/></clipPath></defs><path fill="#f9ef23" d="M 631.355469 165.800781 C 609.480469 139.382812 571.839844 122.320312 535.472656 122.320312 C 510.519531 122.320312 488.9375 130.464844 474.6875 145.25 C 440.5 180.726562 442.964844 246.136719 480.171875 291.042969 C 502.535156 318.054688 536.320312 334.175781 570.523438 334.175781 C 592.992188 334.175781 613.289062 327.207031 629.210938 314 C 670.054688 280.171875 671.015625 213.691406 631.355469 165.800781 Z M 528.097656 198.058594 C 517.988281 208.59375 502.902344 210.53125 494.410156 202.375 C 485.917969 194.222656 487.226562 179.070312 497.34375 168.539062 C 507.453125 158.003906 522.539062 156.066406 531.03125 164.21875 C 539.527344 172.375 538.21875 187.527344 528.097656 198.058594 Z M 528.097656 198.058594 " fill-opacity="1" fill-rule="nonzero"/><path fill="#f9ef23" d="M 540.796875 395.984375 L 389.828125 235.921875 C 387.910156 233.882812 385.183594 232.78125 382.390625 232.988281 C 379.597656 233.167969 377.027344 234.570312 375.382812 236.835938 L 330.625 298.230469 C 328.3125 301.398438 328.21875 305.679688 330.378906 308.960938 L 449.933594 489.777344 C 451.523438 492.1875 454.128906 493.726562 457.007812 493.964844 C 457.261719 493.980469 457.515625 493.992188 457.777344 493.992188 C 460.382812 493.992188 462.886719 492.910156 464.671875 490.980469 L 492.578125 460.894531 C 495.867188 457.351562 495.925781 451.875 492.707031 448.257812 C 490.957031 446.28125 488.871094 443.035156 488.871094 438.757812 C 488.871094 427.914062 500.863281 419.109375 511.933594 427.539062 C 515.789062 430.472656 521.222656 430.011719 524.523438 426.445312 L 540.832031 408.851562 C 544.210938 405.210938 544.191406 399.585938 540.796875 395.984375 Z M 382.078125 314.011719 C 375.335938 314.011719 369.863281 308.539062 369.863281 301.785156 C 369.863281 295.042969 375.328125 289.566406 382.078125 289.566406 C 388.824219 289.566406 394.296875 295.042969 394.296875 301.785156 C 394.296875 308.539062 388.824219 314.011719 382.078125 314.011719 Z M 417.855469 320.726562 C 413.667969 320.726562 410.273438 317.339844 410.273438 313.144531 C 410.273438 308.96875 413.667969 305.566406 417.855469 305.566406 C 422.039062 305.566406 425.433594 308.960938 425.433594 313.144531 C 425.445312 317.339844 422.050781 320.726562 417.855469 320.726562 Z M 417.855469 320.726562 " fill-opacity="1" fill-rule="nonzero"/><g clip-path="url(#90feee7556)"><path fill="#f9ef23" d="M 645.839844 153.800781 C 649.628906 158.371094 652.964844 163.140625 656.097656 167.980469 L 702.398438 121.683594 L 726.484375 73.5 L 678.3125 97.585938 L 634.074219 141.835938 C 638.285156 145.625 642.3125 149.539062 645.839844 153.800781 Z M 645.839844 153.800781 " fill-opacity="1" fill-rule="nonzero"/></g><g clip-path="url(#f94d943e51)"><path fill="#f9ef23" d="M 390.335938 433.746094 L 371.160156 404.738281 L 321.585938 454.3125 L 297.5 502.484375 L 345.683594 478.398438 Z M 390.335938 433.746094 " fill-opacity="1" fill-rule="nonzero"/></g></svg>